<svg xmlns="http://www.w3.org/2000/svg" viewBox="0 0 24 24" width="28" height="28">
<circle cx="12" cy="12" r="12" fill="#25D366"/>
<path fill="#FFFFFF" d="M17.472 14.382c-.297-.149-1.758-.867-2.03-.967-.273-.099-.472-.149-.672.15-.198.297-.768.966-.942 1.165-.173.198-.347.223-.644.074-.297-.149-1.255-.462-2.39-1.475-.885-.788-1.48-1.761-1.653-2.059-.173-.297-.018-.458.13-.607.134-.133.297-.347.446-.52.149-.173.198-.298.298-.497.099-.198.05-.372-.025-.52-.075-.148-.672-1.612-.92-2.207-.242-.579-.487-.5-.672-.51l-.573-.01c-.198 0-.52.074-.793.372s-1.04 1.016-1.04 2.479 1.065 2.876 1.213 3.075c.149.198 2.095 3.2 5.076 4.487  .709.306 1.262.489 1.694.626.712.226 1.36.194 1.872.118.571-.085 1.758-.719 2.007-1.413.248-.695.248-1.289.173-1.413-.074-.124-.272-.198-.57-.347z"/>
</svg>